<?xml version="1.0" encoding="UTF-8" standalone="no"?><svg xmlns="http://www.w3.org/2000/svg" xmlns:xlink="http://www.w3.org/1999/xlink" contentScriptType="application/ecmascript" contentStyleType="text/css" height="400px" preserveAspectRatio="none" style="width:538px;height:400px;background:#FFFFFF;" version="1.1" viewBox="0 0 538 400" width="538px" zoomAndPan="magnify"><defs><filter height="300%" id="f1sofu6n55t75g" width="300%" x="-1" y="-1"><feGaussianBlur result="blurOut" stdDeviation="2.0"/><feColorMatrix in="blurOut" result="blurOut2" type="matrix" values="0 0 0 0 0 0 0 0 0 0 0 0 0 0 0 0 0 0 .4 0"/><feOffset dx="4.0" dy="4.0" in="blurOut2" result="blurOut3"/><feBlend in="SourceGraphic" in2="blurOut3" mode="normal"/></filter></defs><g><!--MD5=[7468467f3b6b392f1d176d828c753b77]
entity db--><path d="M228,21.5 C228,11.5 268,11.5 268,11.5 C268,11.5 308,11.5 308,21.5 L308,47.2999 C308,57.2999 268,57.2999 268,57.2999 C268,57.2999 228,57.2999 228,47.2999 L228,21.5 " fill="#FEFECE" filter="url(#f1sofu6n55t75g)" style="stroke:#000000;stroke-width:1.5;"/><path d="M228,21.5 C228,31.5 268,31.5 268,31.5 C268,31.5 308,31.5 308,21.5 " fill="none" style="stroke:#000000;stroke-width:1.5;"/><text fill="#000000" font-family="sans-serif" font-size="14" lengthAdjust="spacing" textLength="60" x="238" y="49.4999">Database</text><!--MD5=[c8a1f054d404df0a65fc25cf7fbed36b]
entity scope--><rect fill="#FEFECE" filter="url(#f1sofu6n55t75g)" height="36.7999" style="stroke:#000000;stroke-width:1.5;" width="58" x="239" y="133"/><text fill="#000000" font-family="sans-serif" font-size="14" lengthAdjust="spacing" textLength="38" x="249" y="156.9999">Scope</text><!--MD5=[e8144009250fefa8de7ab17e8fe20380]
entity collection--><polygon fill="#FEFECE" filter="url(#f1sofu6n55t75g)" points="223.5,241,269.5,241,276.5,262,312.5,262,312.5,295.7999,223.5,295.7999,223.5,241" style="stroke:#000000;stroke-width:1.5;"/><line style="stroke:#000000;stroke-width:1.5;" x1="223.5" x2="276.5" y1="262" y2="262"/><text fill="#000000" font-family="sans-serif" font-size="14" lengthAdjust="spacing" textLength="59" x="233.5" y="282.9999">Collection</text><!--MD5=[ab1e5baf85ed143b76d3e76a48078bed]
entity document1--><polygon fill="#FEFECE" filter="url(#f1sofu6n55t75g)" points="110,357,110,393.7999,192,393.7999,192,367,182,357,110,357" style="stroke:#000000;stroke-width:1.5;"/><path d="M182,357 L182,367 L192,367 " fill="#FEFECE" style="stroke:#000000;stroke-width:1.5;"/><text fill="#000000" font-family="sans-serif" font-size="14" lengthAdjust="spacing" textLength="62" x="120" y="380.9999">Document</text><!--MD5=[dd1bebfa84e2488b3127885c5b41e328]
entity document2--><polygon fill="#FEFECE" filter="url(#f1sofu6n55t75g)" points="227,357,227,393.7999,309,393.7999,309,367,299,357,227,357" style="stroke:#000000;stroke-width:1.5;"/><path d="M299,357 L299,367 L309,367 " fill="#FEFECE" style="stroke:#000000;stroke-width:1.5;"/><text fill="#000000" font-family="sans-serif" font-size="14" lengthAdjust="spacing" textLength="62" x="237" y="380.9999">Document</text><!--MD5=[a05b76816b6fc3abd39e436261e75b4c]
entity document3--><polygon fill="#FEFECE" filter="url(#f1sofu6n55t75g)" points="344,357,344,393.7999,426,393.7999,426,367,416,357,344,357" style="stroke:#000000;stroke-width:1.5;"/><path d="M416,357 L416,367 L426,367 " fill="#FEFECE" style="stroke:#000000;stroke-width:1.5;"/><text fill="#000000" font-family="sans-serif" font-size="14" lengthAdjust="spacing" textLength="62" x="354" y="380.9999">Document</text><path d="M6,123 L6,179.8 A0,0 0 0 0 6,179.8 L204,179.8 A0,0 0 0 0 204,179.8 L204,155.5 L238.5,151.5 L204,147.5 L204,133 L194,123 L6,123 A0,0 0 0 0 6,123 " fill="#FBFB77" filter="url(#f1sofu6n55t75g)" style="stroke:#A80036;stroke-width:1.0;"/><path d="M194,123 L194,133 L204,133 L194,123 " fill="#FBFB77" style="stroke:#A80036;stroke-width:1.0;"/><text fill="#000000" font-family="sans-serif" font-size="13" lengthAdjust="spacing" textLength="0" x="15" y="141"/><text fill="#000000" font-family="sans-serif" font-size="13" lengthAdjust="spacing" textLength="177" x="12" y="156.6">Maximum of 1000 per database</text><text fill="#000000" font-family="sans-serif" font-size="13" lengthAdjust="spacing" textLength="0" x="15" y="172.2"/><path d="M348,240 L348,264.5 L312.82,268.5 L348,272.5 L348,296.8 A0,0 0 0 0 348,296.8 L528,296.8 A0,0 0 0 0 528,296.8 L528,250 L518,240 L348,240 A0,0 0 0 0 348,240 " fill="#FBFB77" filter="url(#f1sofu6n55t75g)" style="stroke:#A80036;stroke-width:1.0;"/><path d="M518,240 L518,250 L528,250 L518,240 " fill="#FBFB77" style="stroke:#A80036;stroke-width:1.0;"/><text fill="#000000" font-family="sans-serif" font-size="13" lengthAdjust="spacing" textLength="0" x="357" y="258"/><text fill="#000000" font-family="sans-serif" font-size="13" lengthAdjust="spacing" textLength="159" x="354" y="273.6">Maximum of 1000 per scope</text><text fill="#000000" font-family="sans-serif" font-size="13" lengthAdjust="spacing" textLength="0" x="357" y="289.2"/><path d="M343,6 L343,30.5 L308.03,34.5 L343,38.5 L343,62.8 A0,0 0 0 0 343,62.8 L529,62.8 A0,0 0 0 0 529,62.8 L529,16 L519,6 L343,6 A0,0 0 0 0 343,6 " fill="#FBFB77" filter="url(#f1sofu6n55t75g)" style="stroke:#A80036;stroke-width:1.0;"/><path d="M519,6 L519,16 L529,16 L519,6 " fill="#FBFB77" style="stroke:#A80036;stroke-width:1.0;"/><text fill="#000000" font-family="sans-serif" font-size="13" lengthAdjust="spacing" textLength="0" x="352" y="24"/><text fill="#000000" font-family="sans-serif" font-size="13" lengthAdjust="spacing" textLength="165" x="349" y="39.6">One database per application</text><text fill="#000000" font-family="sans-serif" font-size="13" lengthAdjust="spacing" textLength="0" x="352" y="55.2"/><!--MD5=[e293808c0784fccce01dd238b6671f62]
link db to scope--><path d="M268,57.67 C268,77.8 268,107.37 268,127.69 " fill="none" id="db-to-scope" style="stroke:#A80036;stroke-width:1.0;"/><polygon fill="#A80036" points="268,132.91,272,123.91,268,127.91,264,123.91,268,132.91" style="stroke:#A80036;stroke-width:1.0;"/><!--MD5=[bd95b2d60b83b38d7618f2ab0aa9393c]
link scope to collection--><path d="M268,170.47 C268,187.82 268,214.49 268,235.48 " fill="none" id="scope-to-collection" style="stroke:#A80036;stroke-width:1.0;"/><polygon fill="#A80036" points="268,240.68,272,231.68,268,235.68,264,231.68,268,240.68" style="stroke:#A80036;stroke-width:1.0;"/><!--MD5=[ab43a1f600bfb89b9c5121b3602da514]
link collection to document1--><path d="M238.17,296.27 C218.53,313.89 193.17,336.66 174.87,353.08 " fill="none" id="collection-to-document1" style="stroke:#A80036;stroke-width:1.0;"/><polygon fill="#A80036" points="170.84,356.69,180.212,353.6624,174.5636,353.3531,174.8729,347.7047,170.84,356.69" style="stroke:#A80036;stroke-width:1.0;"/><!--MD5=[93f8c9cb5046ebd87d3059498af61558]
link collection to document2--><path d="M268,296.27 C268,313.3 268,335.13 268,351.4 " fill="none" id="collection-to-document2" style="stroke:#A80036;stroke-width:1.0;"/><polygon fill="#A80036" points="268,356.69,272,347.69,268,351.69,264,347.69,268,356.69" style="stroke:#A80036;stroke-width:1.0;"/><!--MD5=[fb180569bd3efdcd43513d540660e130]
link collection to document3--><path d="M297.83,296.27 C317.47,313.89 342.83,336.66 361.13,353.08 " fill="none" id="collection-to-document3" style="stroke:#A80036;stroke-width:1.0;"/><polygon fill="#A80036" points="365.16,356.69,361.1271,347.7047,361.4364,353.3531,355.788,353.6624,365.16,356.69" style="stroke:#A80036;stroke-width:1.0;"/><!--MD5=[8dc85b0e68e1b3715eb1795b81c2fdf9]
@startuml
database "Database" as db

rectangle "Scope" as scope

folder "Collection" as collection



file "Document" as document1
file "Document" as document2
file "Document" as document3

db - -> scope
scope - -> collection
collection - -> document1
collection - -> document2
collection - -> document3


note left of scope

  Maximum of 1000 per database

end note

note right of collection

  Maximum of 1000 per scope

end note

note right of db

  One database per application

end note
@enduml

PlantUML version 1.2021.16(Wed Dec 08 17:25:22 GMT 2021)
(GPL source distribution)
Java Runtime: OpenJDK Runtime Environment
JVM: OpenJDK 64-Bit Server VM
Default Encoding: UTF-8
Language: en
Country: US
--></g></svg>