<?xml version="1.0" encoding="UTF-8" standalone="no"?><svg xmlns="http://www.w3.org/2000/svg" xmlns:xlink="http://www.w3.org/1999/xlink" contentStyleType="text/css" height="329px" preserveAspectRatio="none" style="width:693px;height:329px;background:#FFFFFF;" version="1.1" viewBox="0 0 693 329" width="693px" zoomAndPan="magnify"><defs/><g><!--cluster db1--><g id="cluster_db1"><path d="M6,16 C6,6 125.5,6 125.5,6 C125.5,6 245,6 245,16 L245,188 C245,198 125.5,198 125.5,198 C125.5,198 6,198 6,188 L6,16 " fill="none" style="stroke:#181818;stroke-width:1.0;"/><path d="M6,16 C6,26 125.5,26 125.5,26 C125.5,26 245,26 245,16 " fill="none" style="stroke:#181818;stroke-width:1.0;"/><text fill="#000000" font-family="sans-serif" font-size="14" font-weight="bold" lengthAdjust="spacing" textLength="199" x="26" y="40.9951">Couchbase Lite database</text></g><!--cluster dfs1--><g id="cluster_dfs1"><polygon fill="none" points="30,74,40,64,221,64,221,164,211,174,30,174,30,74" style="stroke:#181818;stroke-width:1.0;"/><line style="stroke:#181818;stroke-width:1.0;" x1="211" x2="221" y1="74" y2="64"/><line style="stroke:#181818;stroke-width:1.0;" x1="30" x2="211" y1="74" y2="74"/><line style="stroke:#181818;stroke-width:1.0;" x1="211" x2="211" y1="74" y2="174"/><text fill="#000000" font-family="sans-serif" font-size="14" font-weight="bold" lengthAdjust="spacing" textLength="115" x="64" y="89.9951">_default scope</text></g><!--cluster db2--><g id="cluster_db2"><path d="M269,16 C269,6 472.5,6 472.5,6 C472.5,6 676,6 676,16 L676,302 C676,312 472.5,312 472.5,312 C472.5,312 269,312 269,302 L269,16 " fill="none" style="stroke:#181818;stroke-width:1.0;"/><path d="M269,16 C269,26 472.5,26 472.5,26 C472.5,26 676,26 676,16 " fill="none" style="stroke:#181818;stroke-width:1.0;"/><text fill="#000000" font-family="sans-serif" font-size="14" font-weight="bold" lengthAdjust="spacing" textLength="199" x="373" y="40.9951">Couchbase Lite database</text></g><!--cluster dfs2--><g id="cluster_dfs2"><polygon fill="none" points="293,74,303,64,484,64,484,278,474,288,293,288,293,74" style="stroke:#181818;stroke-width:1.0;"/><line style="stroke:#181818;stroke-width:1.0;" x1="474" x2="484" y1="74" y2="64"/><line style="stroke:#181818;stroke-width:1.0;" x1="293" x2="474" y1="74" y2="74"/><line style="stroke:#181818;stroke-width:1.0;" x1="474" x2="474" y1="74" y2="288"/><text fill="#000000" font-family="sans-serif" font-size="14" font-weight="bold" lengthAdjust="spacing" textLength="115" x="327" y="89.9951">_default scope</text></g><!--cluster scopeA--><g id="cluster_scopeA"><polygon fill="none" points="508,74,518,64,652,64,652,278,642,288,508,288,508,74" style="stroke:#181818;stroke-width:1.0;"/><line style="stroke:#181818;stroke-width:1.0;" x1="642" x2="652" y1="74" y2="64"/><line style="stroke:#181818;stroke-width:1.0;" x1="508" x2="642" y1="74" y2="74"/><line style="stroke:#181818;stroke-width:1.0;" x1="642" x2="642" y1="74" y2="288"/><text fill="#000000" font-family="sans-serif" font-size="14" font-weight="bold" lengthAdjust="spacing" textLength="65" x="543.5" y="89.9951">Scope A</text></g><!--entity dfc1--><g id="elem_dfc1"><path d="M50.5,104 L91.5,104 A3.75,3.75 0 0 1 94,106.5 L101,125 L199.5,125 A2.5,2.5 0 0 1 202,127.5 L202,155.7969 A2.5,2.5 0 0 1 199.5,158.2969 L50.5,158.2969 A2.5,2.5 0 0 1 48,155.7969 L48,106.5 A2.5,2.5 0 0 1 50.5,104 " fill="#F1F1F1" style="stroke:#181818;stroke-width:0.5;"/><line style="stroke:#181818;stroke-width:0.5;" x1="48" x2="101" y1="125" y2="125"/><text fill="#000000" font-family="sans-serif" font-size="14" lengthAdjust="spacing" textLength="124" x="58" y="144.9951">_default collection</text></g><!--entity dfc2--><g id="elem_dfc2"><path d="M313.5,218 L354.5,218 A3.75,3.75 0 0 1 357,220.5 L364,239 L462.5,239 A2.5,2.5 0 0 1 465,241.5 L465,269.7969 A2.5,2.5 0 0 1 462.5,272.2969 L313.5,272.2969 A2.5,2.5 0 0 1 311,269.7969 L311,220.5 A2.5,2.5 0 0 1 313.5,218 " fill="#F1F1F1" style="stroke:#181818;stroke-width:0.5;"/><line style="stroke:#181818;stroke-width:0.5;" x1="311" x2="364" y1="239" y2="239"/><text fill="#000000" font-family="sans-serif" font-size="14" lengthAdjust="spacing" textLength="124" x="321" y="258.9951">_default collection</text></g><!--entity collectionA--><g id="elem_collectionA"><path d="M335,104 L376,104 A3.75,3.75 0 0 1 378.5,106.5 L385.5,125 L441,125 A2.5,2.5 0 0 1 443.5,127.5 L443.5,155.7969 A2.5,2.5 0 0 1 441,158.2969 L335,158.2969 A2.5,2.5 0 0 1 332.5,155.7969 L332.5,106.5 A2.5,2.5 0 0 1 335,104 " fill="#F1F1F1" style="stroke:#181818;stroke-width:0.5;"/><line style="stroke:#181818;stroke-width:0.5;" x1="332.5" x2="385.5" y1="125" y2="125"/><text fill="#000000" font-family="sans-serif" font-size="14" lengthAdjust="spacing" textLength="81" x="342.5" y="144.9951">Collection A</text></g><!--entity collectionA2--><g id="elem_collectionA2"><path d="M527,104 L568,104 A3.75,3.75 0 0 1 570.5,106.5 L577.5,125 L633,125 A2.5,2.5 0 0 1 635.5,127.5 L635.5,155.7969 A2.5,2.5 0 0 1 633,158.2969 L527,158.2969 A2.5,2.5 0 0 1 524.5,155.7969 L524.5,106.5 A2.5,2.5 0 0 1 527,104 " fill="#F1F1F1" style="stroke:#181818;stroke-width:0.5;"/><line style="stroke:#181818;stroke-width:0.5;" x1="524.5" x2="577.5" y1="125" y2="125"/><text fill="#000000" font-family="sans-serif" font-size="14" lengthAdjust="spacing" textLength="81" x="534.5" y="144.9951">Collection A</text></g><!--entity collectionB--><g id="elem_collectionB"><path d="M526.5,218 L567.5,218 A3.75,3.75 0 0 1 570,220.5 L577,239 L633.5,239 A2.5,2.5 0 0 1 636,241.5 L636,269.7969 A2.5,2.5 0 0 1 633.5,272.2969 L526.5,272.2969 A2.5,2.5 0 0 1 524,269.7969 L524,220.5 A2.5,2.5 0 0 1 526.5,218 " fill="#F1F1F1" style="stroke:#181818;stroke-width:0.5;"/><line style="stroke:#181818;stroke-width:0.5;" x1="524" x2="577" y1="239" y2="239"/><text fill="#000000" font-family="sans-serif" font-size="14" lengthAdjust="spacing" textLength="82" x="534" y="258.9951">Collection B</text></g><!--link collectionA2 to collectionB--><!--link collectionA to dfc2--><!--SRC=[ZP2n2iCW48Ptd-B8dg5vW899nsuTIod6KoA8bcgcuhit4TkOMjh8WOBV_NudCizwvWHKdHtv48z7vGLWkgY0ES1-1mz282vZSSAlA2GRjGV7xIrHqcKOWBGQnJr3kTLQSA-iIJnVyO6yTZ8LRZHhvWZoJwnP7jgWbT6XdATxyq1Znn90otb2BdUQdL9NzAEbrw_upMBjHsVxLMogLNXzE0yAKPXBlS-RSseDpP_r1000]--></g></svg>