<?xml version="1.0" encoding="UTF-8" standalone="no"?><svg xmlns="http://www.w3.org/2000/svg" xmlns:xlink="http://www.w3.org/1999/xlink" contentStyleType="text/css" height="394px" preserveAspectRatio="none" style="width:593px;height:394px;background:#FFFFFF;" version="1.1" viewBox="0 0 593 394" width="593px" zoomAndPan="magnify"><defs/><g><!--MD5=[7468467f3b6b392f1d176d828c753b77]
entity db--><g id="elem_db"><path d="M255.5,21 C255.5,11 298.5,11 298.5,11 C298.5,11 341.5,11 341.5,21 L341.5,46.2969 C341.5,56.2969 298.5,56.2969 298.5,56.2969 C298.5,56.2969 255.5,56.2969 255.5,46.2969 L255.5,21 " fill="#F1F1F1" style="stroke:#181818;stroke-width:0.5;"/><path d="M255.5,21 C255.5,31 298.5,31 298.5,31 C298.5,31 341.5,31 341.5,21 " fill="none" style="stroke:#181818;stroke-width:0.5;"/><text fill="#000000" font-family="sans-serif" font-size="14" lengthAdjust="spacing" textLength="66" x="265.5" y="47.9951">Database</text></g><!--MD5=[c8a1f054d404df0a65fc25cf7fbed36b]
entity scope--><g id="elem_scope"><rect fill="#F1F1F1" height="36.2969" rx="2.5" ry="2.5" style="stroke:#181818;stroke-width:0.5;" width="64" x="266.5" y="130.5"/><text fill="#000000" font-family="sans-serif" font-size="14" lengthAdjust="spacing" textLength="44" x="276.5" y="153.4951">Scope</text></g><!--MD5=[e8144009250fefa8de7ab17e8fe20380]
entity collection--><g id="elem_collection"><path d="M252,236.5 L293,236.5 A3.75,3.75 0 0 1 295.5,239 L302.5,257.5 L345,257.5 A2.5,2.5 0 0 1 347.5,260 L347.5,288.2969 A2.5,2.5 0 0 1 345,290.7969 L252,290.7969 A2.5,2.5 0 0 1 249.5,288.2969 L249.5,239 A2.5,2.5 0 0 1 252,236.5 " fill="#F1F1F1" style="stroke:#181818;stroke-width:0.5;"/><line style="stroke:#181818;stroke-width:0.5;" x1="249.5" x2="302.5" y1="257.5" y2="257.5"/><text fill="#000000" font-family="sans-serif" font-size="14" lengthAdjust="spacing" textLength="68" x="259.5" y="277.4951">Collection</text></g><!--MD5=[ab1e5baf85ed143b76d3e76a48078bed]
entity document1--><g id="elem_document1"><path d="M124,353.5 L124,384.7969 A2.5,2.5 0 0 0 126.5,387.2969 L214.5,387.2969 A2.5,2.5 0 0 0 217,384.7969 L217,361 L207,351 L126.5,351 A2.5,2.5 0 0 0 124,353.5 " fill="#F1F1F1" style="stroke:#181818;stroke-width:0.5;"/><path d="M207,351 L207,358.5 A2.5,2.5 0 0 0 209.5,361 L217,361 " fill="#F1F1F1" style="stroke:#181818;stroke-width:0.5;"/><text fill="#000000" font-family="sans-serif" font-size="14" lengthAdjust="spacing" textLength="73" x="134" y="373.9951">Document</text></g><!--MD5=[dd1bebfa84e2488b3127885c5b41e328]
entity document2--><g id="elem_document2"><path d="M252,353.5 L252,384.7969 A2.5,2.5 0 0 0 254.5,387.2969 L342.5,387.2969 A2.5,2.5 0 0 0 345,384.7969 L345,361 L335,351 L254.5,351 A2.5,2.5 0 0 0 252,353.5 " fill="#F1F1F1" style="stroke:#181818;stroke-width:0.5;"/><path d="M335,351 L335,358.5 A2.5,2.5 0 0 0 337.5,361 L345,361 " fill="#F1F1F1" style="stroke:#181818;stroke-width:0.5;"/><text fill="#000000" font-family="sans-serif" font-size="14" lengthAdjust="spacing" textLength="73" x="262" y="373.9951">Document</text></g><!--MD5=[a05b76816b6fc3abd39e436261e75b4c]
entity document3--><g id="elem_document3"><path d="M380,353.5 L380,384.7969 A2.5,2.5 0 0 0 382.5,387.2969 L470.5,387.2969 A2.5,2.5 0 0 0 473,384.7969 L473,361 L463,351 L382.5,351 A2.5,2.5 0 0 0 380,353.5 " fill="#F1F1F1" style="stroke:#181818;stroke-width:0.5;"/><path d="M463,351 L463,358.5 A2.5,2.5 0 0 0 465.5,361 L473,361 " fill="#F1F1F1" style="stroke:#181818;stroke-width:0.5;"/><text fill="#000000" font-family="sans-serif" font-size="14" lengthAdjust="spacing" textLength="73" x="390" y="373.9951">Document</text></g><g id="elem_GMN13"><path d="M6,121 L6,176.3984 A0,0 0 0 0 6,176.3984 L231,176.3984 A0,0 0 0 0 231,176.3984 L231,152.5 L266.5,148.5 L231,144.5 L231,131 L221,121 L6,121 A0,0 0 0 0 6,121 " fill="#FEFFDD" style="stroke:#181818;stroke-width:0.5;"/><path d="M221,121 L221,131 L231,131 L221,121 " fill="#FEFFDD" style="stroke:#181818;stroke-width:0.5;"/><text fill="#000000" font-family="sans-serif" font-size="13" lengthAdjust="spacing" textLength="4" x="12" y="138.0669"> </text><text fill="#000000" font-family="sans-serif" font-size="13" lengthAdjust="spacing" textLength="204" x="12" y="153.1997">Maximum of 1000 per database</text><text fill="#000000" font-family="sans-serif" font-size="13" lengthAdjust="spacing" textLength="4" x="12" y="168.3325"> </text></g><g id="elem_GMN16"><path d="M382,236 L382,259.5 L347.64,263.5 L382,267.5 L382,291.3984 A0,0 0 0 0 382,291.3984 L585,291.3984 A0,0 0 0 0 585,291.3984 L585,246 L575,236 L382,236 A0,0 0 0 0 382,236 " fill="#FEFFDD" style="stroke:#181818;stroke-width:0.5;"/><path d="M575,236 L575,246 L585,246 L575,236 " fill="#FEFFDD" style="stroke:#181818;stroke-width:0.5;"/><text fill="#000000" font-family="sans-serif" font-size="13" lengthAdjust="spacing" textLength="4" x="388" y="253.0669"> </text><text fill="#000000" font-family="sans-serif" font-size="13" lengthAdjust="spacing" textLength="182" x="388" y="268.1997">Maximum of 1000 per scope</text><text fill="#000000" font-family="sans-serif" font-size="13" lengthAdjust="spacing" textLength="4" x="388" y="283.3325"> </text></g><g id="elem_GMN19"><path d="M377,6 L377,29.5 L341.75,33.5 L377,37.5 L377,61.3984 A0,0 0 0 0 377,61.3984 L586,61.3984 A0,0 0 0 0 586,61.3984 L586,16 L576,6 L377,6 A0,0 0 0 0 377,6 " fill="#FEFFDD" style="stroke:#181818;stroke-width:0.5;"/><path d="M576,6 L576,16 L586,16 L576,6 " fill="#FEFFDD" style="stroke:#181818;stroke-width:0.5;"/><text fill="#000000" font-family="sans-serif" font-size="13" lengthAdjust="spacing" textLength="4" x="383" y="23.0669"> </text><text fill="#000000" font-family="sans-serif" font-size="13" lengthAdjust="spacing" textLength="188" x="383" y="38.1997">One database per application</text><text fill="#000000" font-family="sans-serif" font-size="13" lengthAdjust="spacing" textLength="4" x="383" y="53.3325"> </text></g><!--MD5=[e293808c0784fccce01dd238b6671f62]
link db to scope--><g id="link_db_scope"><path d="M298.5,56.02 C298.5,75.89 298.5,105.27 298.5,125.34 " fill="none" id="db-to-scope" style="stroke:#181818;stroke-width:1.0;"/><polygon fill="#181818" points="298.5,130.48,302.5,121.48,298.5,125.48,294.5,121.48,298.5,130.48" style="stroke:#181818;stroke-width:1.0;"/></g><!--MD5=[bd95b2d60b83b38d7618f2ab0aa9393c]
link scope to collection--><g id="link_scope_collection"><path d="M298.5,166.66 C298.5,183.74 298.5,210.33 298.5,231.17 " fill="none" id="scope-to-collection" style="stroke:#181818;stroke-width:1.0;"/><polygon fill="#181818" points="298.5,236.34,302.5,227.34,298.5,231.34,294.5,227.34,298.5,236.34" style="stroke:#181818;stroke-width:1.0;"/></g><!--MD5=[ab43a1f600bfb89b9c5121b3602da514]
link collection to document1--><g id="link_collection_document1"><path d="M266.2,290.62 C244.26,308.36 215.67,331.48 195.47,347.81 " fill="none" id="collection-to-document1" style="stroke:#181818;stroke-width:1.0;"/><polygon fill="#181818" points="191.55,350.98,201.0574,348.4091,195.4306,347.827,196.0127,342.2002,191.55,350.98" style="stroke:#181818;stroke-width:1.0;"/></g><!--MD5=[93f8c9cb5046ebd87d3059498af61558]
link collection to document2--><g id="link_collection_document2"><path d="M298.5,290.62 C298.5,307.62 298.5,329.56 298.5,345.73 " fill="none" id="collection-to-document2" style="stroke:#181818;stroke-width:1.0;"/><polygon fill="#181818" points="298.5,350.98,302.5,341.98,298.5,345.98,294.5,341.98,298.5,350.98" style="stroke:#181818;stroke-width:1.0;"/></g><!--MD5=[fb180569bd3efdcd43513d540660e130]
link collection to document3--><g id="link_collection_document3"><path d="M330.8,290.62 C352.74,308.36 381.33,331.48 401.53,347.81 " fill="none" id="collection-to-document3" style="stroke:#181818;stroke-width:1.0;"/><polygon fill="#181818" points="405.45,350.98,400.9873,342.2002,401.5694,347.827,395.9426,348.4091,405.45,350.98" style="stroke:#181818;stroke-width:1.0;"/></g><!--MD5=[0e7db46f5e398ff61e646780a1fd05d1]
@startuml
database "Database" as db

rectangle "Scope" as scope

folder "Collection" as collection



file "Document" as document1
file "Document" as document2
file "Document" as document3

db - -> scope
scope - -> collection
collection - -> document1
collection - -> document2
collection - -> document3


note left of scope

  Maximum of 1000 per database

end note

note right of collection

  Maximum of 1000 per scope

end note

note right of db

  One database per application

end note
@enduml

PlantUML version 1.2022.12(Sun Oct 23 18:12:26 GMT 2022)
(GPL source distribution)
Java Runtime: OpenJDK Runtime Environment
JVM: OpenJDK 64-Bit Server VM
Default Encoding: UTF-8
Language: en
Country: US
--></g></svg>