<?xml version="1.0" encoding="UTF-8" standalone="no"?><svg xmlns="http://www.w3.org/2000/svg" xmlns:xlink="http://www.w3.org/1999/xlink" contentStyleType="text/css" height="375px" preserveAspectRatio="none" style="width:475px;height:375px;background:#FFFFFF;" version="1.1" viewBox="0 0 475 375" width="475px" zoomAndPan="magnify"><defs/><g><!--entity db--><g id="elem_db"><path d="M137.5,21 C137.5,11 180.5,11 180.5,11 C180.5,11 223.5,11 223.5,21 L223.5,46.2969 C223.5,56.2969 180.5,56.2969 180.5,56.2969 C180.5,56.2969 137.5,56.2969 137.5,46.2969 L137.5,21 " fill="#F1F1F1" style="stroke:#181818;stroke-width:0.5;"/><path d="M137.5,21 C137.5,31 180.5,31 180.5,31 C180.5,31 223.5,31 223.5,21 " fill="none" style="stroke:#181818;stroke-width:0.5;"/><text fill="#000000" font-family="sans-serif" font-size="14" lengthAdjust="spacing" textLength="66" x="147.5" y="47.9951">Database</text></g><!--entity scope--><g id="elem_scope"><rect fill="#F1F1F1" height="36.2969" rx="2.5" ry="2.5" style="stroke:#181818;stroke-width:0.5;" width="64" x="148.5" y="121"/><text fill="#000000" font-family="sans-serif" font-size="14" lengthAdjust="spacing" textLength="44" x="158.5" y="143.9951">Scope</text></g><!--entity collection--><g id="elem_collection"><path d="M134,217.5 L175,217.5 A3.75,3.75 0 0 1 177.5,220 L184.5,238.5 L227,238.5 A2.5,2.5 0 0 1 229.5,241 L229.5,269.2969 A2.5,2.5 0 0 1 227,271.7969 L134,271.7969 A2.5,2.5 0 0 1 131.5,269.2969 L131.5,220 A2.5,2.5 0 0 1 134,217.5 " fill="#F1F1F1" style="stroke:#181818;stroke-width:0.5;"/><line style="stroke:#181818;stroke-width:0.5;" x1="131.5" x2="184.5" y1="238.5" y2="238.5"/><text fill="#000000" font-family="sans-serif" font-size="14" lengthAdjust="spacing" textLength="68" x="141.5" y="258.4951">Collection</text></g><!--entity document1--><g id="elem_document1"><path d="M6,334.5 L6,365.7969 A2.5,2.5 0 0 0 8.5,368.2969 L96.5,368.2969 A2.5,2.5 0 0 0 99,365.7969 L99,342 L89,332 L8.5,332 A2.5,2.5 0 0 0 6,334.5 " fill="#F1F1F1" style="stroke:#181818;stroke-width:0.5;"/><path d="M89,332 L89,339.5 A2.5,2.5 0 0 0 91.5,342 L99,342 " fill="#F1F1F1" style="stroke:#181818;stroke-width:0.5;"/><text fill="#000000" font-family="sans-serif" font-size="14" lengthAdjust="spacing" textLength="73" x="16" y="354.9951">Document</text></g><!--entity document2--><g id="elem_document2"><path d="M134,334.5 L134,365.7969 A2.5,2.5 0 0 0 136.5,368.2969 L224.5,368.2969 A2.5,2.5 0 0 0 227,365.7969 L227,342 L217,332 L136.5,332 A2.5,2.5 0 0 0 134,334.5 " fill="#F1F1F1" style="stroke:#181818;stroke-width:0.5;"/><path d="M217,332 L217,339.5 A2.5,2.5 0 0 0 219.5,342 L227,342 " fill="#F1F1F1" style="stroke:#181818;stroke-width:0.5;"/><text fill="#000000" font-family="sans-serif" font-size="14" lengthAdjust="spacing" textLength="73" x="144" y="354.9951">Document</text></g><!--entity document3--><g id="elem_document3"><path d="M262,334.5 L262,365.7969 A2.5,2.5 0 0 0 264.5,368.2969 L352.5,368.2969 A2.5,2.5 0 0 0 355,365.7969 L355,342 L345,332 L264.5,332 A2.5,2.5 0 0 0 262,334.5 " fill="#F1F1F1" style="stroke:#181818;stroke-width:0.5;"/><path d="M345,332 L345,339.5 A2.5,2.5 0 0 0 347.5,342 L355,342 " fill="#F1F1F1" style="stroke:#181818;stroke-width:0.5;"/><text fill="#000000" font-family="sans-serif" font-size="14" lengthAdjust="spacing" textLength="73" x="272" y="354.9951">Document</text></g><g id="elem_GMN13"><path d="M265,217 L265,240.5 L229.91,244.5 L265,248.5 L265,272.3984 A0,0 0 0 0 265,272.3984 L468,272.3984 A0,0 0 0 0 468,272.3984 L468,227 L458,217 L265,217 A0,0 0 0 0 265,217 " fill="#FEFFDD" style="stroke:#181818;stroke-width:0.5;"/><path d="M458,217 L458,227 L468,227 L458,217 " fill="#FEFFDD" style="stroke:#181818;stroke-width:0.5;"/><text fill="#000000" font-family="sans-serif" font-size="13" lengthAdjust="spacing" textLength="4" x="271" y="234.0669"> </text><text fill="#000000" font-family="sans-serif" font-size="13" lengthAdjust="spacing" textLength="182" x="271" y="249.1997">Maximum of 1000 per scope</text><text fill="#000000" font-family="sans-serif" font-size="13" lengthAdjust="spacing" textLength="4" x="271" y="264.3325"> </text></g><g id="elem_GMN16"><path d="M259,6 L259,29.5 L223.75,33.5 L259,37.5 L259,61.3984 A0,0 0 0 0 259,61.3984 L468,61.3984 A0,0 0 0 0 468,61.3984 L468,16 L458,6 L259,6 A0,0 0 0 0 259,6 " fill="#FEFFDD" style="stroke:#181818;stroke-width:0.5;"/><path d="M458,6 L458,16 L468,16 L458,6 " fill="#FEFFDD" style="stroke:#181818;stroke-width:0.5;"/><text fill="#000000" font-family="sans-serif" font-size="13" lengthAdjust="spacing" textLength="4" x="265" y="23.0669"> </text><text fill="#000000" font-family="sans-serif" font-size="13" lengthAdjust="spacing" textLength="188" x="265" y="38.1997">One database per application</text><text fill="#000000" font-family="sans-serif" font-size="13" lengthAdjust="spacing" textLength="4" x="265" y="53.3325"> </text></g><!--link db to scope--><g id="link_db_scope"><path d="M180.5,56.45 C180.5,73.47 180.5,97.01 180.5,114.42 " fill="none" id="db-to-scope" style="stroke:#181818;stroke-width:1.0;"/><polygon fill="#181818" points="180.5,119.02,184.5,110.02,180.5,114.02,176.5,110.02,180.5,119.02" style="stroke:#181818;stroke-width:1.0;"/></g><!--link scope to collection--><g id="link_scope_collection"><path d="M180.5,157.09 C180.5,171.61 180.5,192.88 180.5,210.67 " fill="none" id="scope-to-collection" style="stroke:#181818;stroke-width:1.0;"/><polygon fill="#181818" points="180.5,215.54,184.5,206.54,180.5,210.54,176.5,206.54,180.5,215.54" style="stroke:#181818;stroke-width:1.0;"/></g><!--link collection to document1--><g id="link_collection_document1"><path d="M147.87,271.89 C126.43,289.22 98.75,311.6 78.74,327.79 " fill="none" id="collection-to-document1" style="stroke:#181818;stroke-width:1.0;"/><polygon fill="#181818" points="75,330.81,84.5131,328.2602,78.8876,327.6657,79.4821,322.0401,75,330.81" style="stroke:#181818;stroke-width:1.0;"/></g><!--link collection to document2--><g id="link_collection_document2"><path d="M180.5,271.89 C180.5,288.34 180.5,309.34 180.5,325.27 " fill="none" id="collection-to-document2" style="stroke:#181818;stroke-width:1.0;"/><polygon fill="#181818" points="180.5,330.25,184.5,321.25,180.5,325.25,176.5,321.25,180.5,330.25" style="stroke:#181818;stroke-width:1.0;"/></g><!--link collection to document3--><g id="link_collection_document3"><path d="M213.13,271.89 C234.57,289.22 262.25,311.6 282.26,327.79 " fill="none" id="collection-to-document3" style="stroke:#181818;stroke-width:1.0;"/><polygon fill="#181818" points="286,330.81,281.5179,322.0401,282.1124,327.6657,276.4869,328.2602,286,330.81" style="stroke:#181818;stroke-width:1.0;"/></g><!--SRC=[VP3B3eCW44NtynKJzoO-zjtKRTD5ls1uQ4aGY6BIpoyWrhQ9iY0pETmxp1NaYT4iiUXoLI3DA1Z09BadC-Z07jow5Son0kYj5dB2ucgr3i-KDOdoJmlXz2fgEykNKHg_-kQcFeFD6Mm11CEolEIlf3lrNyFtCf5zwW5eZa0Rzm1ZlSH93K-FjlzP4l56BpKkOmHrLLNeGYmv96a4Hkc_GGmNyMuaYYtzg2BdjEAq6c_QDm00]--></g></svg>