<?xml version="1.0" encoding="UTF-8" standalone="no"?><svg xmlns="http://www.w3.org/2000/svg" xmlns:xlink="http://www.w3.org/1999/xlink" contentStyleType="text/css" height="394px" preserveAspectRatio="none" style="width:593px;height:394px;background:#FFFFFF;" version="1.1" viewBox="0 0 593 394" width="593px" zoomAndPan="magnify"><defs/><g><!--entity db--><g id="elem_db"><path d="M255.5,21 C255.5,11 298.5,11 298.5,11 C298.5,11 341.5,11 341.5,21 L341.5,46.2969 C341.5,56.2969 298.5,56.2969 298.5,56.2969 C298.5,56.2969 255.5,56.2969 255.5,46.2969 L255.5,21 " fill="#F1F1F1" style="stroke:#181818;stroke-width:0.5;"/><path d="M255.5,21 C255.5,31 298.5,31 298.5,31 C298.5,31 341.5,31 341.5,21 " fill="none" style="stroke:#181818;stroke-width:0.5;"/><text fill="#000000" font-family="sans-serif" font-size="14" lengthAdjust="spacing" textLength="66" x="265.5" y="47.9951">Database</text></g><!--entity scope--><g id="elem_scope"><rect fill="#F1F1F1" height="36.2969" rx="2.5" ry="2.5" style="stroke:#181818;stroke-width:0.5;" width="64" x="266.5" y="130.5"/><text fill="#000000" font-family="sans-serif" font-size="14" lengthAdjust="spacing" textLength="44" x="276.5" y="153.4951">Scope</text></g><!--entity collection--><g id="elem_collection"><path d="M252,236.5 L293,236.5 A3.75,3.75 0 0 1 295.5,239 L302.5,257.5 L345,257.5 A2.5,2.5 0 0 1 347.5,260 L347.5,288.2969 A2.5,2.5 0 0 1 345,290.7969 L252,290.7969 A2.5,2.5 0 0 1 249.5,288.2969 L249.5,239 A2.5,2.5 0 0 1 252,236.5 " fill="#F1F1F1" style="stroke:#181818;stroke-width:0.5;"/><line style="stroke:#181818;stroke-width:0.5;" x1="249.5" x2="302.5" y1="257.5" y2="257.5"/><text fill="#000000" font-family="sans-serif" font-size="14" lengthAdjust="spacing" textLength="68" x="259.5" y="277.4951">Collection</text></g><!--entity document1--><g id="elem_document1"><path d="M124,353.5 L124,384.7969 A2.5,2.5 0 0 0 126.5,387.2969 L214.5,387.2969 A2.5,2.5 0 0 0 217,384.7969 L217,361 L207,351 L126.5,351 A2.5,2.5 0 0 0 124,353.5 " fill="#F1F1F1" style="stroke:#181818;stroke-width:0.5;"/><path d="M207,351 L207,358.5 A2.5,2.5 0 0 0 209.5,361 L217,361 " fill="#F1F1F1" style="stroke:#181818;stroke-width:0.5;"/><text fill="#000000" font-family="sans-serif" font-size="14" lengthAdjust="spacing" textLength="73" x="134" y="373.9951">Document</text></g><!--entity document2--><g id="elem_document2"><path d="M252,353.5 L252,384.7969 A2.5,2.5 0 0 0 254.5,387.2969 L342.5,387.2969 A2.5,2.5 0 0 0 345,384.7969 L345,361 L335,351 L254.5,351 A2.5,2.5 0 0 0 252,353.5 " fill="#F1F1F1" style="stroke:#181818;stroke-width:0.5;"/><path d="M335,351 L335,358.5 A2.5,2.5 0 0 0 337.5,361 L345,361 " fill="#F1F1F1" style="stroke:#181818;stroke-width:0.5;"/><text fill="#000000" font-family="sans-serif" font-size="14" lengthAdjust="spacing" textLength="73" x="262" y="373.9951">Document</text></g><!--entity document3--><g id="elem_document3"><path d="M380,353.5 L380,384.7969 A2.5,2.5 0 0 0 382.5,387.2969 L470.5,387.2969 A2.5,2.5 0 0 0 473,384.7969 L473,361 L463,351 L382.5,351 A2.5,2.5 0 0 0 380,353.5 " fill="#F1F1F1" style="stroke:#181818;stroke-width:0.5;"/><path d="M463,351 L463,358.5 A2.5,2.5 0 0 0 465.5,361 L473,361 " fill="#F1F1F1" style="stroke:#181818;stroke-width:0.5;"/><text fill="#000000" font-family="sans-serif" font-size="14" lengthAdjust="spacing" textLength="73" x="390" y="373.9951">Document</text></g><g id="elem_GMN13"><path d="M6,121 L6,176.3984 A0,0 0 0 0 6,176.3984 L231,176.3984 A0,0 0 0 0 231,176.3984 L231,152.5 L266.24,148.5 L231,144.5 L231,131 L221,121 L6,121 A0,0 0 0 0 6,121 " fill="#FEFFDD" style="stroke:#181818;stroke-width:0.5;"/><path d="M221,121 L221,131 L231,131 L221,121 " fill="#FEFFDD" style="stroke:#181818;stroke-width:0.5;"/><text fill="#000000" font-family="sans-serif" font-size="13" lengthAdjust="spacing" textLength="4" x="12" y="138.0669"> </text><text fill="#000000" font-family="sans-serif" font-size="13" lengthAdjust="spacing" textLength="204" x="12" y="153.1997">Maximum of 1000 per database</text><text fill="#000000" font-family="sans-serif" font-size="13" lengthAdjust="spacing" textLength="4" x="12" y="168.3325"> </text></g><g id="elem_GMN16"><path d="M383,236 L383,259.5 L347.91,263.5 L383,267.5 L383,291.3984 A0,0 0 0 0 383,291.3984 L586,291.3984 A0,0 0 0 0 586,291.3984 L586,246 L576,236 L383,236 A0,0 0 0 0 383,236 " fill="#FEFFDD" style="stroke:#181818;stroke-width:0.5;"/><path d="M576,236 L576,246 L586,246 L576,236 " fill="#FEFFDD" style="stroke:#181818;stroke-width:0.5;"/><text fill="#000000" font-family="sans-serif" font-size="13" lengthAdjust="spacing" textLength="4" x="389" y="253.0669"> </text><text fill="#000000" font-family="sans-serif" font-size="13" lengthAdjust="spacing" textLength="182" x="389" y="268.1997">Maximum of 1000 per scope</text><text fill="#000000" font-family="sans-serif" font-size="13" lengthAdjust="spacing" textLength="4" x="389" y="283.3325"> </text></g><g id="elem_GMN19"><path d="M377,6 L377,29.5 L341.75,33.5 L377,37.5 L377,61.3984 A0,0 0 0 0 377,61.3984 L586,61.3984 A0,0 0 0 0 586,61.3984 L586,16 L576,6 L377,6 A0,0 0 0 0 377,6 " fill="#FEFFDD" style="stroke:#181818;stroke-width:0.5;"/><path d="M576,6 L576,16 L586,16 L576,6 " fill="#FEFFDD" style="stroke:#181818;stroke-width:0.5;"/><text fill="#000000" font-family="sans-serif" font-size="13" lengthAdjust="spacing" textLength="4" x="383" y="23.0669"> </text><text fill="#000000" font-family="sans-serif" font-size="13" lengthAdjust="spacing" textLength="188" x="383" y="38.1997">One database per application</text><text fill="#000000" font-family="sans-serif" font-size="13" lengthAdjust="spacing" textLength="4" x="383" y="53.3325"> </text></g><!--link db to scope--><g id="link_db_scope"><path d="M298.5,56.29 C298.5,75.65 298.5,103.89 298.5,123.8 " fill="none" id="db-to-scope" style="stroke:#181818;stroke-width:1.0;"/><polygon fill="#181818" points="298.5,128.7,302.5,119.7,298.5,123.7,294.5,119.7,298.5,128.7" style="stroke:#181818;stroke-width:1.0;"/></g><!--link scope to collection--><g id="link_scope_collection"><path d="M298.5,166.66 C298.5,183.38 298.5,209.21 298.5,229.84 " fill="none" id="scope-to-collection" style="stroke:#181818;stroke-width:1.0;"/><polygon fill="#181818" points="298.5,234.83,302.5,225.83,298.5,229.83,294.5,225.83,298.5,234.83" style="stroke:#181818;stroke-width:1.0;"/></g><!--link collection to document1--><g id="link_collection_document1"><path d="M265.87,290.89 C244.43,308.22 216.75,330.6 196.74,346.79 " fill="none" id="collection-to-document1" style="stroke:#181818;stroke-width:1.0;"/><polygon fill="#181818" points="193,349.81,202.5131,347.2602,196.8876,346.6657,197.4821,341.0401,193,349.81" style="stroke:#181818;stroke-width:1.0;"/></g><!--link collection to document2--><g id="link_collection_document2"><path d="M298.5,290.89 C298.5,307.34 298.5,328.34 298.5,344.27 " fill="none" id="collection-to-document2" style="stroke:#181818;stroke-width:1.0;"/><polygon fill="#181818" points="298.5,349.25,302.5,340.25,298.5,344.25,294.5,340.25,298.5,349.25" style="stroke:#181818;stroke-width:1.0;"/></g><!--link collection to document3--><g id="link_collection_document3"><path d="M331.13,290.89 C352.57,308.22 380.25,330.6 400.26,346.79 " fill="none" id="collection-to-document3" style="stroke:#181818;stroke-width:1.0;"/><polygon fill="#181818" points="404,349.81,399.5179,341.0401,400.1124,346.6657,394.4869,347.2602,404,349.81" style="stroke:#181818;stroke-width:1.0;"/></g><!--SRC=[VP7B3eCW44NtynKJzoPgzztKRTD5ls3aOKaGY6BIpoyWFXPL5sI6uxqN1awUEfe45csk2gG9UGSm2kR9z3gmDxDk0LEi0AJLN8nOFApMuJTbJQ9iQo5yKaLjQzay2ECNtzpKLx2vWZS0tc5PtlDHqfhwG_XU9hAdde3c38GqCDOBr49wj7AzF-AJlcgOXxXNLrM5Beo3vn422CCnwh9wLFqdoOy3-k-H0yuCuiCWlepOmfAAdDEAqMAyQdy0]--></g></svg>